<svg width="479" height="64" version="1" xmlns="http://www.w3.org/2000/svg"><g fill="none" fill-rule="evenodd"><path d="M15 0c6 0 11 5 11 11v4l-1 1-8 2h-2v-6l-2-2c-2 0-3 1-3 2v8l2 3 11 9c2 1 3 3 3 5v16c0 6-5 11-11 11h-4C5 64 0 59 0 53v-9l1-2 8-2 1 1v11c0 1 1 2 3 2l2-2V40l-1-3-12-9-2-6V11C0 5 5 0 11 0h4zm41 1l1 1v51c0 6-5 11-11 11h-3c-6 0-11-5-11-11V2l1-1h8l1 1v50l2 2h1l2-2V2l1-1h8zm23 0c6 0 11 5 11 11v15c0 6-5 11-11 11h-4v24l-1 1h-8l-1-1V2l1-1h13zm1 25V12l-2-2h-3v18h3l2-2zm37 27l1 1v8l-1 1H97l-1-1V2l1-1h20l1 1v8l-1 1h-10v13h8l2 1v8l-2 2h-8v18h10zm36 9l-1 1h-8l-2-1-6-22v22l-1 1h-8l-2-1V2l2-1h13c6 0 11 5 11 11v15c0 4-2 8-6 10l8 25zm-17-52v18h3l2-2V12l-2-2h-3z" fill="#FBC02D"/><path d="M186 62l-1 1h-8l-2-1V52h-6v10l-2 1h-8l-1-1 7-60 1-1h12l1 1 7 60zm-16-20h4l-2-24-2 24zm42-41l2 1v8l-2 1h-10v13h9l1 1v8l-1 2h-9v27l-1 1h-8l-1-1V2l1-1h19zm19 1v60l-1 1h-8l-2-1V2l2-1h8l1 1zm22-2c6 0 11 5 11 11v7l-1 2-8 1c-1 1-2 0-2-1v-8l-2-2c-2 0-3 1-3 2v40c0 1 1 2 3 2l2-2V40l2-1 8 1 1 2v11c0 6-5 11-11 11h-4c-6 0-11-5-11-11V11c0-6 5-11 11-11h4zm28 2v60l-1 1h-8l-1-1V2l1-1h8l1 1zm33 51c0 6-5 11-11 11h-4c-6 0-11-5-11-11V11c0-6 5-11 11-11h4c6 0 11 5 11 11v42zm-10-41c0-1-1-2-3-2l-2 2v40l2 2c2 0 3-1 3-2V12zm44-11l2 1v60l-2 1h-5l-2-1-9-29v29l-2 1h-8l-1-1V2l1-1h6l2 1 9 29V2l1-1h8zm36 61l-2 1h-8l-1-1-1-10h-5l-1 10-1 1h-8c-1 0-2 0-1-1l6-60 2-1h11l2 1 7 60zm-17-20h5l-2-24h-1l-2 24zm37-41c6 0 11 5 11 11v40c0 6-5 11-11 11h-13l-2-1V2l2-1h13zm1 51V12l-2-2h-3v44h3l2-2zm42 1c0 6-5 11-11 11h-3c-6 0-11-5-11-11V11c0-6 5-11 11-11h3c6 0 11 5 11 11v42zm-10-41l-2-2h-1l-2 2v40l2 2h1l2-2V12zm31-12c6 0 11 5 11 11v4l-1 1-8 2h-1v-6c0-1-1-2-3-2l-2 2v8l1 3 12 9 2 5v16c0 6-5 11-11 11h-4c-6 0-11-5-11-11v-9l1-2 8-2 2 1v11l2 2c2 0 3-1 3-2V40l-2-3-11-9c-2-2-3-3-3-6V11c0-6 5-11 11-11h4z" fill="#FFF"/></g></svg>